<?xml version="1.0" encoding="UTF-8"?>
<svg id="Layer_2" xmlns="http://www.w3.org/2000/svg" version="1.1" viewBox="0 0 2094.1 578.3">
  <!-- Generator: Adobe Illustrator 29.3.1, SVG Export Plug-In . SVG Version: 2.1.0 Build 151)  -->
  <defs>
    <style>
      .st0 {
        stroke-width: .2px;
      }

      .st0, .st1, .st2, .st3 {
        isolation: isolate;
      }

      .st0, .st2, .st3 {
        fill: #18181b;
        font-family: TimesNow-Light, 'Times Now';
        font-size: 49px;
        font-weight: 300;
      }

      .st0, .st3 {
        stroke: #18181b;
        stroke-miterlimit: 10;
      }

      .st4 {
        fill: #cdc3e8;
      }

      .st3 {
        stroke-width: .2px;
      }
    </style>
  </defs>
  <g id="Layer_1-2">
    <path class="st4" d="M1145.5,578.3c-13.1,0-26-.7-38.9-2.1-151.6-16.1-259.1-124.4-354-219.9-54.9-55.2-86.8-100.1-112.4-136.1-34.9-49.1-56-78.7-111.3-105.9-50.6-24.9-106.8-36.4-167.1-34-47,1.8-80.2,11.8-83.8,13-130.2,40.7-191,150.5-206.5,183.1-8.9,18.7-31.3,26.6-50,17.8-18.7-8.9-26.7-31.3-17.8-50,16.4-34.5,40.3-70.4,67.2-101,51.4-58.4,113.5-99.3,184.6-121.6,10.5-3.3,49.2-14.2,103.3-16.3,72.9-2.8,141.2,11.2,203.2,41.7,72.4,35.7,101.9,77.2,139.3,129.8,25.3,35.6,54,75.9,104.5,126.8,90.3,90.9,183.6,184.9,308.7,198.2,115.8,12.3,239.7-43.6,368.1-166.3,47.6-45.5,69.7-81.1,91.1-115.5,24.5-39.4,47.6-76.6,100.8-117.8C1772.2,26.4,1901.5-7.5,2058.7,1.4c20.7,1.2,36.5,18.9,35.3,39.6-1.2,20.7-18.9,36.5-39.6,35.3-138.6-7.8-251.1,20.8-334.2,85.1-42.5,32.9-60.4,61.6-83,98-22.8,36.6-48.5,78.1-103,130.1-22.8,21.8-76.1,72.7-149.9,116.5-81.1,48-161.3,72.3-238.9,72.3Z"/>
    <g>
      <g class="st1">
        <text class="st2" transform="translate(51.4 267.7) rotate(-61.6)"><tspan x="0" y="0">D</tspan></text>
        <text class="st3" transform="translate(51.4 267.7) rotate(-61.6)"><tspan x="0" y="0">D</tspan></text>
      </g>
      <g class="st1">
        <text class="st2" transform="translate(67.9 237.7) rotate(-57.5)"><tspan x="0" y="0">e</tspan></text>
        <text class="st3" transform="translate(67.9 237.7) rotate(-57.5)"><tspan x="0" y="0">e</tspan></text>
      </g>
      <g class="st1">
        <text class="st2" transform="translate(79 220.3) rotate(-54.7)"><tspan x="0" y="0">s</tspan></text>
        <text class="st3" transform="translate(79 220.3) rotate(-54.7)"><tspan x="0" y="0">s</tspan></text>
      </g>
      <g class="st1">
        <text class="st2" transform="translate(89.7 205.2) rotate(-52.5)"><tspan x="0" y="0">i</tspan></text>
        <text class="st3" transform="translate(89.7 205.2) rotate(-52.5)"><tspan x="0" y="0">i</tspan></text>
      </g>
      <g class="st1">
        <text class="st2" transform="translate(96.6 195.9) rotate(-50.1)"><tspan x="0" y="0">g</tspan></text>
        <text class="st3" transform="translate(96.6 195.9) rotate(-50.1)"><tspan x="0" y="0">g</tspan></text>
      </g>
      <g class="st1">
        <text class="st2" transform="translate(112.3 177.1) rotate(-46.6)"><tspan x="0" y="0">n</tspan></text>
        <text class="st3" transform="translate(112.3 177.1) rotate(-46.6)"><tspan x="0" y="0">n</tspan></text>
      </g>
      <g class="st1">
        <text class="st2" transform="translate(128.8 159.8) rotate(-43.8)"><tspan x="0" y="0">i</tspan></text>
        <text class="st3" transform="translate(128.8 159.8) rotate(-43.8)"><tspan x="0" y="0">i</tspan></text>
      </g>
      <g class="st1">
        <text class="st2" transform="translate(137.8 151) rotate(-41)"><tspan x="0" y="0">n</tspan></text>
        <text class="st3" transform="translate(137.8 151) rotate(-41)"><tspan x="0" y="0">n</tspan></text>
      </g>
      <g class="st1">
        <text class="st2" transform="translate(155.3 135.7) rotate(-37.4)"><tspan x="0" y="0">g</tspan></text>
        <text class="st3" transform="translate(155.3 135.7) rotate(-37.4)"><tspan x="0" y="0">g</tspan></text>
      </g>
      <g class="st1">
        <text class="st2" transform="translate(183.3 114.7) rotate(-31.1)"><tspan x="0" y="0">B</tspan></text>
        <text class="st3" transform="translate(183.3 114.7) rotate(-31.1)"><tspan x="0" y="0">B</tspan></text>
      </g>
      <g class="st1">
        <text class="st2" transform="translate(209.8 99) rotate(-27.2)"><tspan x="0" y="0">r</tspan></text>
        <text class="st3" transform="translate(209.8 99) rotate(-27.2)"><tspan x="0" y="0">r</tspan></text>
      </g>
      <g class="st1">
        <text class="st2" transform="translate(223.4 91.8) rotate(-24.2)"><tspan x="0" y="0">a</tspan></text>
        <text class="st3" transform="translate(223.4 91.8) rotate(-24.2)"><tspan x="0" y="0">a</tspan></text>
      </g>
      <g class="st1">
        <text class="st2" transform="translate(242.4 83.3) rotate(-20.5)"><tspan x="0" y="0">n</tspan></text>
        <text class="st3" transform="translate(242.4 83.3) rotate(-20.5)"><tspan x="0" y="0">n</tspan></text>
      </g>
      <g class="st1">
        <text class="st2" transform="translate(263.8 75) rotate(-15.8)"><tspan x="0" y="0">d</tspan></text>
        <text class="st3" transform="translate(263.8 75) rotate(-15.8)"><tspan x="0" y="0">d</tspan></text>
      </g>
      <g class="st1">
        <text class="st2" transform="translate(285.9 68.9) rotate(-11.8)"><tspan x="0" y="0">s</tspan></text>
        <text class="st3" transform="translate(285.9 68.9) rotate(-11.8)"><tspan x="0" y="0">s</tspan></text>
      </g>
      <g class="st1">
        <text class="st2" transform="translate(303.9 65.2) rotate(-9.5)"><tspan x="0" y="0">,</tspan></text>
        <text class="st3" transform="translate(303.9 65.2) rotate(-9.5)"><tspan x="0" y="0">,</tspan></text>
      </g>
      <g class="st1">
        <text class="st2" transform="translate(327.2 61.6) rotate(-5.8)"><tspan x="0" y="0">I</tspan></text>
        <text class="st3" transform="translate(327.2 61.6) rotate(-5.8)"><tspan x="0" y="0">I</tspan></text>
      </g>
      <g class="st1">
        <text class="st2" transform="translate(342.4 59.9) rotate(-3.1)"><tspan x="0" y="0">g</tspan></text>
        <text class="st3" transform="translate(342.4 59.9) rotate(-3.1)"><tspan x="0" y="0">g</tspan></text>
      </g>
      <g class="st1">
        <text class="st2" transform="translate(366.9 58.6) rotate(.4)"><tspan x="0" y="0">n</tspan></text>
        <text class="st3" transform="translate(366.9 58.6) rotate(.4)"><tspan x="0" y="0">n</tspan></text>
      </g>
      <g class="st1">
        <text class="st2" transform="translate(390.8 58.9) rotate(3)"><tspan x="0" y="0">i</tspan></text>
        <text class="st3" transform="translate(390.8 58.9) rotate(3)"><tspan x="0" y="0">i</tspan></text>
      </g>
      <g class="st1">
        <text class="st2" transform="translate(403.8 59.5) rotate(5)"><tspan x="0" y="0">t</tspan></text>
        <text class="st3" transform="translate(403.8 59.5) rotate(5)"><tspan x="0" y="0">t</tspan></text>
      </g>
      <g class="st1">
        <text class="st2" transform="translate(416.7 60.6) rotate(6.9)"><tspan x="0" y="0">i</tspan></text>
        <text class="st3" transform="translate(416.7 60.6) rotate(6.9)"><tspan x="0" y="0">i</tspan></text>
      </g>
      <g class="st1">
        <text class="st2" transform="translate(429.2 62) rotate(9.6)"><tspan x="0" y="0">n</tspan></text>
        <text class="st3" transform="translate(429.2 62) rotate(9.6)"><tspan x="0" y="0">n</tspan></text>
      </g>
      <g class="st1">
        <text class="st2" transform="translate(452.1 65.8) rotate(13.3)"><tspan x="0" y="0">g</tspan></text>
        <text class="st3" transform="translate(452.1 65.8) rotate(13.3)"><tspan x="0" y="0">g</tspan></text>
      </g>
      <g class="st1">
        <text class="st2" transform="translate(486 73.8) rotate(20.5)"><tspan x="0" y="0">M</tspan></text>
        <text class="st3" transform="translate(486 73.8) rotate(20.5)"><tspan x="0" y="0">M</tspan></text>
      </g>
      <g class="st1">
        <text class="st2" transform="translate(524.5 88.6) rotate(25.5)"><tspan x="0" y="0">o</tspan></text>
        <text class="st3" transform="translate(524.5 88.6) rotate(25.5)"><tspan x="0" y="0">o</tspan></text>
      </g>
      <g class="st1">
        <text class="st2" transform="translate(543.6 97.6) rotate(29.5)"><tspan x="0" y="0">v</tspan></text>
        <text class="st3" transform="translate(543.6 97.6) rotate(29.5)"><tspan x="0" y="0">v</tspan></text>
      </g>
      <g class="st1">
        <text class="st2" transform="translate(562.5 108.2) rotate(34)"><tspan x="0" y="0">e</tspan></text>
        <text class="st0" transform="translate(562.5 108.2) rotate(34)"><tspan x="0" y="0">e</tspan></text>
      </g>
      <g class="st1">
        <text class="st2" transform="translate(579.3 118.8) rotate(41)"><tspan x="0" y="0">m</tspan></text>
        <text class="st3" transform="translate(579.3 118.8) rotate(41)"><tspan x="0" y="0">m</tspan></text>
      </g>
      <g class="st1">
        <text class="st2" transform="translate(605.6 142.1) rotate(47.5)"><tspan x="0" y="0">e</tspan></text>
        <text class="st3" transform="translate(605.6 142.1) rotate(47.5)"><tspan x="0" y="0">e</tspan></text>
      </g>
      <g class="st1">
        <text class="st2" transform="translate(619.6 157.3) rotate(51.4)"><tspan x="0" y="0">n</tspan></text>
        <text class="st3" transform="translate(619.6 157.3) rotate(51.4)"><tspan x="0" y="0">n</tspan></text>
      </g>
      <g class="st1">
        <text class="st2" transform="translate(634.2 175.8) rotate(53.4)"><tspan x="0" y="0">t</tspan></text>
        <text class="st3" transform="translate(634.2 175.8) rotate(53.4)"><tspan x="0" y="0">t</tspan></text>
      </g>
      <g class="st1">
        <text class="st2" transform="translate(642.3 186.6) rotate(54.3)"><tspan x="0" y="0">s</tspan></text>
        <text class="st3" transform="translate(642.3 186.6) rotate(54.3)"><tspan x="0" y="0">s</tspan></text>
      </g>
      <g class="st1">
        <text class="st2" transform="translate(653.3 202) rotate(54.6)"><tspan x="0" y="0">,</tspan></text>
        <text class="st3" transform="translate(653.3 202) rotate(54.6)"><tspan x="0" y="0">,</tspan></text>
      </g>
      <g class="st1">
        <text class="st2" transform="translate(667.7 222.3) rotate(53.7)"><tspan x="0" y="0">D</tspan></text>
        <text class="st3" transform="translate(667.7 222.3) rotate(53.7)"><tspan x="0" y="0">D</tspan></text>
      </g>
      <g class="st1">
        <text class="st2" transform="translate(689 251.2) rotate(52.1)"><tspan x="0" y="0">e</tspan></text>
        <text class="st3" transform="translate(689 251.2) rotate(52.1)"><tspan x="0" y="0">e</tspan></text>
      </g>
      <g class="st1">
        <text class="st2" transform="translate(702.4 268.3) rotate(50.8)"><tspan x="0" y="0">s</tspan></text>
        <text class="st3" transform="translate(702.4 268.3) rotate(50.8)"><tspan x="0" y="0">s</tspan></text>
      </g>
      <g class="st1">
        <text class="st2" transform="translate(714.7 283.3) rotate(49.7)"><tspan x="0" y="0">i</tspan></text>
        <text class="st3" transform="translate(714.7 283.3) rotate(49.7)"><tspan x="0" y="0">i</tspan></text>
      </g>
      <g class="st1">
        <text class="st2" transform="translate(722.8 293) rotate(48.5)"><tspan x="0" y="0">g</tspan></text>
        <text class="st3" transform="translate(722.8 293) rotate(48.5)"><tspan x="0" y="0">g</tspan></text>
      </g>
      <g class="st1">
        <text class="st2" transform="translate(740 312.5) rotate(46.8)"><tspan x="0" y="0">n</tspan></text>
        <text class="st3" transform="translate(740 312.5) rotate(46.8)"><tspan x="0" y="0">n</tspan></text>
      </g>
      <g class="st1">
        <text class="st2" transform="translate(757.2 330.6) rotate(45.7)"><tspan x="0" y="0">i</tspan></text>
        <text class="st3" transform="translate(757.2 330.6) rotate(45.7)"><tspan x="0" y="0">i</tspan></text>
      </g>
      <g class="st1">
        <text class="st2" transform="translate(766.7 340.3) rotate(45.2)"><tspan x="0" y="0">n</tspan></text>
        <text class="st0" transform="translate(766.7 340.3) rotate(45.2)"><tspan x="0" y="0">n</tspan></text>
      </g>
      <g class="st1">
        <text class="st2" transform="translate(783.8 357.6) rotate(44.9)"><tspan x="0" y="0">g</tspan></text>
        <text class="st3" transform="translate(783.8 357.6) rotate(44.9)"><tspan x="0" y="0">g</tspan></text>
      </g>
      <g class="st1">
        <text class="st2" transform="translate(810.1 383.7) rotate(43.9)"><tspan x="0" y="0">B</tspan></text>
        <text class="st3" transform="translate(810.1 383.7) rotate(43.9)"><tspan x="0" y="0">B</tspan></text>
      </g>
      <g class="st1">
        <text class="st2" transform="translate(833.3 406) rotate(42.9)"><tspan x="0" y="0">r</tspan></text>
        <text class="st3" transform="translate(833.3 406) rotate(42.9)"><tspan x="0" y="0">r</tspan></text>
      </g>
      <g class="st1">
        <text class="st2" transform="translate(845.4 417.2) rotate(41.9)"><tspan x="0" y="0">a</tspan></text>
        <text class="st3" transform="translate(845.4 417.2) rotate(41.9)"><tspan x="0" y="0">a</tspan></text>
      </g>
      <g class="st1">
        <text class="st2" transform="translate(861.9 432.1) rotate(40.5)"><tspan x="0" y="0">n</tspan></text>
        <text class="st3" transform="translate(861.9 432.1) rotate(40.5)"><tspan x="0" y="0">n</tspan></text>
      </g>
      <g class="st1">
        <text class="st2" transform="translate(880.8 448.2) rotate(38.7)"><tspan x="0" y="0">d</tspan></text>
        <text class="st3" transform="translate(880.8 448.2) rotate(38.7)"><tspan x="0" y="0">d</tspan></text>
      </g>
      <g class="st1">
        <text class="st2" transform="translate(900 463.5) rotate(36.9)"><tspan x="0" y="0">s</tspan></text>
        <text class="st3" transform="translate(900 463.5) rotate(36.9)"><tspan x="0" y="0">s</tspan></text>
      </g>
      <g class="st1">
        <text class="st2" transform="translate(915.6 475.2) rotate(35.4)"><tspan x="0" y="0">,</tspan></text>
        <text class="st3" transform="translate(915.6 475.2) rotate(35.4)"><tspan x="0" y="0">,</tspan></text>
      </g>
      <g class="st1">
        <text class="st2" transform="translate(936.4 489.7) rotate(32.6)"><tspan x="0" y="0">I</tspan></text>
        <text class="st3" transform="translate(936.4 489.7) rotate(32.6)"><tspan x="0" y="0">I</tspan></text>
      </g>
      <g class="st1">
        <text class="st2" transform="translate(950.5 498.8) rotate(30.1)"><tspan x="0" y="0">g</tspan></text>
        <text class="st3" transform="translate(950.5 498.8) rotate(30.1)"><tspan x="0" y="0">g</tspan></text>
      </g>
      <g class="st1">
        <text class="st2" transform="translate(973.4 512) rotate(26.7)"><tspan x="0" y="0">n</tspan></text>
        <text class="st3" transform="translate(973.4 512) rotate(26.7)"><tspan x="0" y="0">n</tspan></text>
      </g>
      <g class="st1">
        <text class="st2" transform="translate(996.2 523.4) rotate(23.9)"><tspan x="0" y="0">i</tspan></text>
        <text class="st3" transform="translate(996.2 523.4) rotate(23.9)"><tspan x="0" y="0">i</tspan></text>
      </g>
      <g class="st1">
        <text class="st2" transform="translate(1009.1 529.1) rotate(21.8)"><tspan x="0" y="0">t</tspan></text>
        <text class="st3" transform="translate(1009.1 529.1) rotate(21.8)"><tspan x="0" y="0">t</tspan></text>
      </g>
      <g class="st1">
        <text class="st2" transform="translate(1022.2 534.3) rotate(19.7)"><tspan x="0" y="0">i</tspan></text>
        <text class="st3" transform="translate(1022.2 534.3) rotate(19.7)"><tspan x="0" y="0">i</tspan></text>
      </g>
      <g class="st1">
        <text class="st2" transform="translate(1035.6 539.3) rotate(16.5)"><tspan x="0" y="0">n</tspan></text>
        <text class="st3" transform="translate(1035.6 539.3) rotate(16.5)"><tspan x="0" y="0">n</tspan></text>
      </g>
      <g class="st1">
        <text class="st2" transform="translate(1060 546.5) rotate(12.4)"><tspan x="0" y="0">g</tspan></text>
        <text class="st3" transform="translate(1060 546.5) rotate(12.4)"><tspan x="0" y="0">g</tspan></text>
      </g>
      <g class="st1">
        <text class="st2" transform="translate(1098.3 554.5) rotate(4.2)"><tspan x="0" y="0">M</tspan></text>
        <text class="st3" transform="translate(1098.3 554.5) rotate(4.2)"><tspan x="0" y="0">M</tspan></text>
      </g>
      <g class="st1">
        <text class="st2" transform="translate(1142.5 557.2) rotate(-1.5)"><tspan x="0" y="0">o</tspan></text>
        <text class="st3" transform="translate(1142.5 557.2) rotate(-1.5)"><tspan x="0" y="0">o</tspan></text>
      </g>
      <g class="st1">
        <text class="st2" transform="translate(1165.8 556.6) rotate(-5.2)"><tspan x="0" y="0">v</tspan></text>
        <text class="st3" transform="translate(1165.8 556.6) rotate(-5.2)"><tspan x="0" y="0">v</tspan></text>
      </g>
      <g class="st1">
        <text class="st2" transform="translate(1189.6 554.4) rotate(-8.7)"><tspan x="0" y="0">e</tspan></text>
        <text class="st3" transform="translate(1189.6 554.4) rotate(-8.7)"><tspan x="0" y="0">e</tspan></text>
      </g>
      <g class="st1">
        <text class="st2" transform="translate(1212.4 551.2) rotate(-13.1)"><tspan x="0" y="0">m</tspan></text>
        <text class="st3" transform="translate(1212.4 551.2) rotate(-13.1)"><tspan x="0" y="0">m</tspan></text>
      </g>
      <g class="st1">
        <text class="st2" transform="translate(1249.4 542.3) rotate(-17.1)"><tspan x="0" y="0">e</tspan></text>
        <text class="st3" transform="translate(1249.4 542.3) rotate(-17.1)"><tspan x="0" y="0">e</tspan></text>
      </g>
      <g class="st1">
        <text class="st2" transform="translate(1271 535.6) rotate(-20.1)"><tspan x="0" y="0">n</tspan></text>
        <text class="st3" transform="translate(1271 535.6) rotate(-20.1)"><tspan x="0" y="0">n</tspan></text>
      </g>
      <g class="st1">
        <text class="st2" transform="translate(1294.3 527) rotate(-22.4)"><tspan x="0" y="0">t</tspan></text>
        <text class="st3" transform="translate(1294.3 527) rotate(-22.4)"><tspan x="0" y="0">t</tspan></text>
      </g>
      <g class="st1">
        <text class="st2" transform="translate(1307.5 521.6) rotate(-24.2)"><tspan x="0" y="0">s</tspan></text>
        <text class="st3" transform="translate(1307.5 521.6) rotate(-24.2)"><tspan x="0" y="0">s</tspan></text>
      </g>
      <g class="st1">
        <text class="st2" transform="translate(1325.3 513.5) rotate(-26)"><tspan x="0" y="0">,</tspan></text>
        <text class="st3" transform="translate(1325.3 513.5) rotate(-26)"><tspan x="0" y="0">,</tspan></text>
      </g>
      <g class="st1">
        <text class="st2" transform="translate(1348.3 502.2) rotate(-29.6)"><tspan x="0" y="0">D</tspan></text>
        <text class="st3" transform="translate(1348.3 502.2) rotate(-29.6)"><tspan x="0" y="0">D</tspan></text>
      </g>
      <g class="st1">
        <text class="st2" transform="translate(1379.7 484.2) rotate(-32.2)"><tspan x="0" y="0">e</tspan></text>
        <text class="st3" transform="translate(1379.7 484.2) rotate(-32.2)"><tspan x="0" y="0">e</tspan></text>
      </g>
      <g class="st1">
        <text class="st2" transform="translate(1398.2 472.5) rotate(-33.9)"><tspan x="0" y="0">s</tspan></text>
        <text class="st3" transform="translate(1398.2 472.5) rotate(-33.9)"><tspan x="0" y="0">s</tspan></text>
      </g>
      <g class="st1">
        <text class="st2" transform="translate(1414.3 461.6) rotate(-35.3)"><tspan x="0" y="0">i</tspan></text>
        <text class="st3" transform="translate(1414.3 461.6) rotate(-35.3)"><tspan x="0" y="0">i</tspan></text>
      </g>
      <g class="st1">
        <text class="st2" transform="translate(1424.7 454.3) rotate(-36.7)"><tspan x="0" y="0">g</tspan></text>
        <text class="st3" transform="translate(1424.7 454.3) rotate(-36.7)"><tspan x="0" y="0">g</tspan></text>
      </g>
      <g class="st1">
        <text class="st2" transform="translate(1445.6 438.7) rotate(-38.6)"><tspan x="0" y="0">n</tspan></text>
        <text class="st3" transform="translate(1445.6 438.7) rotate(-38.6)"><tspan x="0" y="0">n</tspan></text>
      </g>
      <g class="st1">
        <text class="st2" transform="translate(1465.1 423.1) rotate(-40)"><tspan x="0" y="0">i</tspan></text>
        <text class="st3" transform="translate(1465.1 423.1) rotate(-40)"><tspan x="0" y="0">i</tspan></text>
      </g>
      <g class="st1">
        <text class="st2" transform="translate(1475.7 414.2) rotate(-41.2)"><tspan x="0" y="0">n</tspan></text>
        <text class="st3" transform="translate(1475.7 414.2) rotate(-41.2)"><tspan x="0" y="0">n</tspan></text>
      </g>
      <g class="st1">
        <text class="st2" transform="translate(1494.3 397.9) rotate(-42.8)"><tspan x="0" y="0">g</tspan></text>
        <text class="st3" transform="translate(1494.3 397.9) rotate(-42.8)"><tspan x="0" y="0">g</tspan></text>
      </g>
      <g class="st1">
        <text class="st2" transform="translate(1521.8 372.5) rotate(-45.4)"><tspan x="0" y="0">B</tspan></text>
        <text class="st3" transform="translate(1521.8 372.5) rotate(-45.4)"><tspan x="0" y="0">B</tspan></text>
      </g>
      <g class="st1">
        <text class="st2" transform="translate(1544.6 349.1) rotate(-47.8)"><tspan x="0" y="0">r</tspan></text>
        <text class="st3" transform="translate(1544.6 349.1) rotate(-47.8)"><tspan x="0" y="0">r</tspan></text>
      </g>
      <g class="st1">
        <text class="st2" transform="translate(1555.9 336.7) rotate(-49.9)"><tspan x="0" y="0">a</tspan></text>
        <text class="st3" transform="translate(1555.9 336.7) rotate(-49.9)"><tspan x="0" y="0">a</tspan></text>
      </g>
      <g class="st1">
        <text class="st2" transform="translate(1570.4 319.4) rotate(-52.6)"><tspan x="0" y="0">n</tspan></text>
        <text class="st3" transform="translate(1570.4 319.4) rotate(-52.6)"><tspan x="0" y="0">n</tspan></text>
      </g>
      <g class="st1">
        <text class="st2" transform="translate(1585.6 299.5) rotate(-55.3)"><tspan x="0" y="0">d</tspan></text>
        <text class="st0" transform="translate(1585.6 299.5) rotate(-55.3)"><tspan x="0" y="0">d</tspan></text>
      </g>
      <g class="st1">
        <text class="st2" transform="translate(1599.6 279.3) rotate(-57.1)"><tspan x="0" y="0">s</tspan></text>
        <text class="st3" transform="translate(1599.6 279.3) rotate(-57.1)"><tspan x="0" y="0">s</tspan></text>
      </g>
      <g class="st1">
        <text class="st2" transform="translate(1610 263.1) rotate(-57.9)"><tspan x="0" y="0">,</tspan></text>
        <text class="st3" transform="translate(1610 263.1) rotate(-57.9)"><tspan x="0" y="0">,</tspan></text>
      </g>
      <g class="st1">
        <text class="st2" transform="translate(1622.9 242.3) rotate(-57.8)"><tspan x="0" y="0">I</tspan></text>
        <text class="st3" transform="translate(1622.9 242.3) rotate(-57.8)"><tspan x="0" y="0">I</tspan></text>
      </g>
      <g class="st1">
        <text class="st2" transform="translate(1631.2 229) rotate(-56.1)"><tspan x="0" y="0">g</tspan></text>
        <text class="st3" transform="translate(1631.2 229) rotate(-56.1)"><tspan x="0" y="0">g</tspan></text>
      </g>
      <g class="st1">
        <text class="st2" transform="translate(1644.8 208.7) rotate(-52.2)"><tspan x="0" y="0">n</tspan></text>
        <text class="st3" transform="translate(1644.8 208.7) rotate(-52.2)"><tspan x="0" y="0">n</tspan></text>
      </g>
      <g class="st1">
        <text class="st2" transform="translate(1659.3 190.1) rotate(-48.7)"><tspan x="0" y="0">i</tspan></text>
        <text class="st3" transform="translate(1659.3 190.1) rotate(-48.7)"><tspan x="0" y="0">i</tspan></text>
      </g>
      <g class="st1">
        <text class="st2" transform="translate(1667.8 180.4) rotate(-46)"><tspan x="0" y="0">t</tspan></text>
        <text class="st3" transform="translate(1667.8 180.4) rotate(-46)"><tspan x="0" y="0">t</tspan></text>
      </g>
      <g class="st1">
        <text class="st2" transform="translate(1676.6 171.3) rotate(-43.5)"><tspan x="0" y="0">i</tspan></text>
        <text class="st3" transform="translate(1676.6 171.3) rotate(-43.5)"><tspan x="0" y="0">i</tspan></text>
      </g>
      <g class="st1">
        <text class="st2" transform="translate(1685.6 162.5) rotate(-40.3)"><tspan x="0" y="0">n</tspan></text>
        <text class="st3" transform="translate(1685.6 162.5) rotate(-40.3)"><tspan x="0" y="0">n</tspan></text>
      </g>
      <g class="st1">
        <text class="st2" transform="translate(1703.3 147.5) rotate(-36.7)"><tspan x="0" y="0">g</tspan></text>
        <text class="st3" transform="translate(1703.3 147.5) rotate(-36.7)"><tspan x="0" y="0">g</tspan></text>
      </g>
      <g class="st1">
        <text class="st2" transform="translate(1731.3 126.7) rotate(-30.1)"><tspan x="0" y="0">M</tspan></text>
        <text class="st3" transform="translate(1731.3 126.7) rotate(-30.1)"><tspan x="0" y="0">M</tspan></text>
      </g>
      <g class="st1">
        <text class="st2" transform="translate(1767.3 106.2) rotate(-25.6)"><tspan x="0" y="0">o</tspan></text>
        <text class="st3" transform="translate(1767.3 106.2) rotate(-25.6)"><tspan x="0" y="0">o</tspan></text>
      </g>
      <g class="st1">
        <text class="st2" transform="translate(1786.6 96.8) rotate(-22.6)"><tspan x="0" y="0">v</tspan></text>
        <text class="st3" transform="translate(1786.6 96.8) rotate(-22.6)"><tspan x="0" y="0">v</tspan></text>
      </g>
      <g class="st1">
        <text class="st2" transform="translate(1807.1 88.3) rotate(-19.9)"><tspan x="0" y="0">e</tspan></text>
        <text class="st3" transform="translate(1807.1 88.3) rotate(-19.9)"><tspan x="0" y="0">e</tspan></text>
      </g>
      <g class="st1">
        <text class="st2" transform="translate(1826.5 81) rotate(-16.4)"><tspan x="0" y="0">m</tspan></text>
        <text class="st3" transform="translate(1826.5 81) rotate(-16.4)"><tspan x="0" y="0">m</tspan></text>
      </g>
      <g class="st1">
        <text class="st2" transform="translate(1861.1 71) rotate(-13.1)"><tspan x="0" y="0">e</tspan></text>
        <text class="st3" transform="translate(1861.1 71) rotate(-13.1)"><tspan x="0" y="0">e</tspan></text>
      </g>
      <g class="st1">
        <text class="st2" transform="translate(1881.6 66.2) rotate(-10.6)"><tspan x="0" y="0">n</tspan></text>
        <text class="st3" transform="translate(1881.6 66.2) rotate(-10.6)"><tspan x="0" y="0">n</tspan></text>
      </g>
      <g class="st1">
        <text class="st2" transform="translate(1904.8 61.9) rotate(-8.7)"><tspan x="0" y="0">t</tspan></text>
        <text class="st3" transform="translate(1904.8 61.9) rotate(-8.7)"><tspan x="0" y="0">t</tspan></text>
      </g>
      <g class="st1">
        <text class="st2" transform="translate(1918 59.9) rotate(-7.2)"><tspan x="0" y="0">s</tspan></text>
        <text class="st3" transform="translate(1918 59.9) rotate(-7.2)"><tspan x="0" y="0">s</tspan></text>
      </g>
      <g class="st1">
        <text class="st2" transform="translate(1936.5 57.6) rotate(-5.7)"><tspan x="0" y="0">,</tspan></text>
        <text class="st3" transform="translate(1936.5 57.6) rotate(-5.7)"><tspan x="0" y="0">,</tspan></text>
      </g>
    </g>
  </g>
</svg>